<svg xmlns="http://www.w3.org/2000/svg" width="24" height="24" viewBox="0 0 24 24" fill="none">
	<g clip-path="url(#clip0_150_40083)">
		<path fill-rule="evenodd" clip-rule="evenodd" d="M-5.24537e-07 12C-8.1423e-07 5.37258 5.37258 -2.34843e-07 12 -5.24537e-07C18.6274 -8.1423e-07 24 5.37258 24 12C24 18.6274 18.6274 24 12 24C5.37258 24 -2.34843e-07 18.6274 -5.24537e-07 12ZM16.2 12.1C16.2 12.8732 16.8268 13.5 17.6 13.5C18.3732 13.5 19 12.8732 19 12.1C19 11.3268 18.3732 10.7 17.6 10.7C16.8268 10.7 16.2 11.3268 16.2 12.1ZM10.6 12.1C10.6 12.8732 11.2268 13.5 12 13.5C12.7732 13.5 13.4 12.8732 13.4 12.1C13.4 11.3268 12.7732 10.7 12 10.7C11.2268 10.7 10.6 11.3268 10.6 12.1ZM5 12.1C5 12.8732 5.6268 13.5 6.4 13.5C7.1732 13.5 7.8 12.8732 7.8 12.1C7.8 11.3268 7.1732 10.7 6.4 10.7C5.6268 10.7 5 11.3268 5 12.1Z" fill="#79BDE9"/>
	</g>
	<defs>
		<clipPath id="clip0_150_40083">
			<rect width="24" height="24" fill="white" transform="translate(0 24) rotate(-90)"/>
		</clipPath>
	</defs>
</svg>
